<?xml version="1.0" encoding="utf-8"?>
<!-- Generator: Adobe Illustrator 24.1.2, SVG Export Plug-In . SVG Version: 6.00 Build 0)  -->
<svg version="1.1" xmlns="http://www.w3.org/2000/svg" xmlns:xlink="http://www.w3.org/1999/xlink" x="0px" y="0px"
	 viewBox="0 0 537.24 36.14" style="enable-background:new 0 0 537.24 36.14;" xml:space="preserve">
<style type="text/css">
	.st0{fill:#636669;}
	.st1{fill:none;stroke:#636669;stroke-width:0.5;stroke-miterlimit:10;}
	.st2{fill:#636569;}
	.st3{fill:#316094;}
	.st4{display:none;}
	.st5{display:inline;}
	.st6{fill:#616365;}
	.st7{display:inline;fill:none;stroke:#616365;stroke-width:0.5;stroke-miterlimit:10;}
	.st8{display:inline;fill:#636569;}
	.st9{display:inline;fill:#316094;}
	.st10{fill:none;stroke:#616365;stroke-width:0.5;stroke-miterlimit:10;}
	.st11{fill:#616465;}
	.st12{fill:#FFFFFF;}
	.st13{fill:#58595B;}
	.st14{display:inline;fill:none;stroke:#FFFFFF;stroke-width:0.5;stroke-miterlimit:10;}
	.st15{display:inline;fill:#FFFFFF;}
	.st16{display:none;fill:#58595B;}
	.st17{fill:none;stroke:#FFFFFF;stroke-width:0.5;stroke-miterlimit:10;}
</style>
<g id="DataEcosystem_--_base_version">
	<g id="desktop_x5F_long_1_">
	</g>
	<g id="desktop" class="st4">
	</g>
	<g id="mobile_x5F_preferred">
	</g>
	<g id="mobile_x5F_vertical">
	</g>
</g>
<g id="DataEcosystem_--_white_version">
	<g id="desktop_2_" class="st4">
	</g>
	<g id="desktop_x5F_long">
		<rect class="st16" width="537.24" height="36.14"/>
		<g>
			<path class="st12" d="M188.38,5.21h4.96v24.56h-4.47l-11.68-16.9v16.9h-4.95V5.21h4.91l11.22,16.25V5.21z"/>
			<path class="st12" d="M198.83,5.21h4.95v24.56h-4.95V5.21z"/>
			<path class="st12" d="M207.47,29.77l8.81-24.56h5.24l8.79,24.56h-4.95l-2.01-5.69h-8.84l-2.06,5.69H207.47z M215.61,19.75h6.54
				L218.91,10L215.61,19.75z"/>
			<path class="st12" d="M233.99,5.21h4.95v24.56h-4.95V5.21z"/>
			<path class="st12" d="M244.44,5.21c0.13,0,0.47,0,1.05,0s1.25,0,2.02,0s1.55,0,2.33,0.01c0.78,0.01,1.42,0.01,1.95,0.03
				c2.98,0.07,5.41,0.6,7.29,1.6c1.88,1,3.26,2.39,4.14,4.18s1.32,3.91,1.32,6.35c0,2.55-0.46,4.75-1.39,6.6
				c-0.93,1.85-2.35,3.28-4.26,4.29c-1.91,1.01-4.33,1.51-7.27,1.51h-7.17V5.21z M249.44,9.22v16.54h2.28
				c1.41,0,2.68-0.27,3.83-0.82c1.15-0.54,2.07-1.43,2.76-2.67c0.69-1.23,1.04-2.88,1.04-4.94c0-1.91-0.31-3.47-0.92-4.66
				c-0.61-1.19-1.49-2.07-2.62-2.62c-1.13-0.55-2.48-0.83-4.03-0.83H249.44z"/>
			<path class="st12" d="M277.66,5.21c0.13,0,0.47,0,1.05,0s1.25,0,2.02,0s1.55,0,2.33,0.01c0.78,0.01,1.42,0.01,1.95,0.03
				c2.98,0.07,5.41,0.6,7.29,1.6c1.88,1,3.26,2.39,4.14,4.18s1.32,3.91,1.32,6.35c0,2.55-0.46,4.75-1.39,6.6
				c-0.93,1.85-2.35,3.28-4.26,4.29c-1.91,1.01-4.33,1.51-7.27,1.51h-7.17V5.21z M282.66,9.22v16.54h2.28
				c1.41,0,2.68-0.27,3.83-0.82c1.15-0.54,2.07-1.43,2.76-2.67c0.69-1.23,1.04-2.88,1.04-4.94c0-1.91-0.31-3.47-0.92-4.66
				c-0.61-1.19-1.49-2.07-2.62-2.62c-1.13-0.55-2.48-0.83-4.03-0.83H282.66z"/>
			<path class="st12" d="M306.61,30.11c-1.12,0-2.13-0.21-3.03-0.63c-0.9-0.42-1.6-1.03-2.13-1.83c-0.52-0.8-0.78-1.77-0.78-2.91
				c0-1.92,0.72-3.39,2.16-4.39c1.44-1,3.71-1.52,6.82-1.55l2.19-0.03v-1.05c0-0.8-0.24-1.42-0.71-1.86
				c-0.47-0.44-1.2-0.65-2.18-0.64c-0.73,0.01-1.41,0.18-2.07,0.51c-0.65,0.33-1.1,0.9-1.33,1.72h-4.13
				c0.07-1.27,0.44-2.31,1.1-3.13c0.67-0.82,1.58-1.43,2.73-1.83s2.46-0.6,3.92-0.6c1.8,0,3.25,0.22,4.33,0.67
				c1.09,0.45,1.88,1.09,2.36,1.92c0.49,0.83,0.73,1.82,0.73,2.96v12.35h-4.15l-0.41-3.02c-0.6,1.27-1.35,2.15-2.25,2.63
				C308.9,29.86,307.83,30.11,306.61,30.11z M308.27,26.85c0.45,0,0.89-0.08,1.32-0.25c0.42-0.16,0.8-0.38,1.14-0.66
				c0.33-0.28,0.6-0.59,0.81-0.94s0.31-0.71,0.31-1.09v-2.6l-1.79,0.03c-0.83,0.01-1.6,0.11-2.31,0.3s-1.29,0.49-1.73,0.91
				c-0.44,0.42-0.65,0.98-0.65,1.7c0,0.81,0.28,1.45,0.85,1.91C306.78,26.62,307.47,26.85,308.27,26.85z"/>
			<path class="st12" d="M330.94,15.65h-3.91l0.03,9.36c0,0.43,0.05,0.75,0.16,0.96c0.11,0.21,0.28,0.35,0.51,0.41
				c0.23,0.06,0.53,0.09,0.89,0.09h2.36v3.06c-0.23,0.1-0.58,0.2-1.06,0.29c-0.48,0.09-1.15,0.14-2.01,0.14
				c-1.54,0-2.73-0.2-3.58-0.59c-0.84-0.4-1.43-0.95-1.76-1.67c-0.33-0.71-0.49-1.54-0.49-2.48v-9.56h-2.86v-3.45h3.03l1.24-5.3
				h3.54v5.28h3.91V15.65z"/>
			<path class="st12" d="M339.64,30.11c-1.12,0-2.13-0.21-3.03-0.63c-0.9-0.42-1.6-1.03-2.13-1.83c-0.52-0.8-0.78-1.77-0.78-2.91
				c0-1.92,0.72-3.39,2.16-4.39c1.44-1,3.71-1.52,6.82-1.55l2.19-0.03v-1.05c0-0.8-0.24-1.42-0.71-1.86
				c-0.47-0.44-1.2-0.65-2.18-0.64c-0.73,0.01-1.41,0.18-2.07,0.51c-0.65,0.33-1.1,0.9-1.33,1.72h-4.13
				c0.07-1.27,0.44-2.31,1.1-3.13c0.67-0.82,1.58-1.43,2.73-1.83s2.46-0.6,3.92-0.6c1.8,0,3.25,0.22,4.33,0.67
				c1.09,0.45,1.88,1.09,2.36,1.92c0.49,0.83,0.73,1.82,0.73,2.96v12.35h-4.15l-0.41-3.02c-0.6,1.27-1.35,2.15-2.25,2.63
				C341.93,29.86,340.86,30.11,339.64,30.11z M341.31,26.85c0.45,0,0.89-0.08,1.32-0.25c0.42-0.16,0.8-0.38,1.14-0.66
				c0.33-0.28,0.6-0.59,0.81-0.94s0.31-0.71,0.31-1.09v-2.6l-1.79,0.03c-0.83,0.01-1.6,0.11-2.31,0.3s-1.29,0.49-1.73,0.91
				c-0.44,0.42-0.65,0.98-0.65,1.7c0,0.81,0.28,1.45,0.85,1.91C339.81,26.62,340.5,26.85,341.31,26.85z"/>
			<path class="st12" d="M363.4,29.77V5.21h16.88l-0.02,4.18h-11.88v5.96h10.32v4.09h-10.35v6.1l12.1,0.02v4.21H363.4z"/>
			<path class="st12" d="M391.78,11.87c1.47,0,2.75,0.3,3.82,0.9s1.92,1.41,2.53,2.43c0.62,1.02,0.97,2.16,1.06,3.41h-4.13
				c-0.08-0.46-0.24-0.93-0.49-1.38c-0.25-0.46-0.6-0.84-1.05-1.14c-0.45-0.3-1.02-0.45-1.7-0.45c-1.16,0-2.09,0.44-2.81,1.33
				c-0.72,0.89-1.08,2.24-1.08,4.05c0,1.71,0.35,3.06,1.05,4.07c0.7,1,1.68,1.5,2.94,1.5c0.67,0,1.23-0.16,1.67-0.49
				c0.45-0.33,0.8-0.72,1.04-1.18c0.25-0.46,0.41-0.89,0.48-1.28h4.03c-0.08,1.21-0.43,2.31-1.05,3.29s-1.47,1.75-2.54,2.33
				c-1.07,0.57-2.33,0.86-3.77,0.86c-1.63,0-3.09-0.36-4.37-1.09c-1.28-0.72-2.29-1.76-3.02-3.12c-0.73-1.35-1.1-2.97-1.1-4.85
				c0-1.81,0.35-3.41,1.05-4.79c0.7-1.38,1.69-2.46,2.97-3.24C388.59,12.25,390.08,11.87,391.78,11.87z"/>
			<path class="st12" d="M410.15,30.11c-1.72,0-3.22-0.37-4.5-1.1c-1.28-0.74-2.26-1.78-2.96-3.13c-0.7-1.35-1.05-2.94-1.05-4.79
				s0.35-3.46,1.05-4.84c0.7-1.38,1.68-2.46,2.96-3.23c1.27-0.77,2.78-1.16,4.51-1.16c1.73,0,3.24,0.38,4.5,1.13
				c1.27,0.75,2.25,1.82,2.94,3.2s1.04,3.01,1.04,4.89c0,1.77-0.34,3.33-1.01,4.68c-0.67,1.35-1.64,2.42-2.91,3.18
				C413.47,29.72,411.94,30.11,410.15,30.11z M410.17,26.42c0.87,0,1.58-0.25,2.11-0.76c0.53-0.51,0.92-1.18,1.17-2.01
				c0.24-0.83,0.37-1.74,0.37-2.73c0-0.93-0.11-1.81-0.33-2.63c-0.22-0.83-0.6-1.49-1.13-2c-0.53-0.51-1.26-0.76-2.18-0.76
				c-0.87,0-1.58,0.24-2.12,0.72c-0.54,0.48-0.93,1.13-1.18,1.95c-0.25,0.82-0.37,1.73-0.37,2.73c0,0.92,0.11,1.8,0.34,2.64
				c0.23,0.84,0.61,1.53,1.14,2.06C408.51,26.16,409.24,26.42,410.17,26.42z"/>
			<path class="st12" d="M428.85,30.11c-1.22,0-2.4-0.2-3.54-0.6c-1.13-0.4-2.09-1.04-2.87-1.9s-1.28-1.99-1.5-3.37h4.3
				c0.15,0.62,0.42,1.12,0.81,1.48c0.39,0.36,0.84,0.62,1.33,0.77c0.5,0.15,0.97,0.23,1.43,0.23c0.95,0,1.72-0.15,2.3-0.45
				c0.58-0.3,0.88-0.76,0.88-1.38c0-0.48-0.17-0.85-0.52-1.14s-0.92-0.5-1.71-0.65l-3.09-0.65c-1.55-0.33-2.8-0.89-3.74-1.67
				c-0.94-0.79-1.42-1.9-1.45-3.35c0-1.05,0.28-2,0.84-2.84c0.56-0.84,1.39-1.5,2.49-1.99s2.45-0.73,4.05-0.73
				c2.17,0,3.9,0.48,5.19,1.43s1.96,2.29,1.98,4.03h-4.15c-0.13-0.68-0.46-1.2-1.01-1.57c-0.55-0.37-1.24-0.55-2.07-0.55
				c-0.86,0-1.57,0.15-2.13,0.46s-0.83,0.77-0.83,1.39c0,0.46,0.23,0.83,0.68,1.1s1.16,0.5,2.11,0.69l2.86,0.65
				c0.99,0.24,1.79,0.56,2.41,0.98c0.62,0.41,1.1,0.86,1.44,1.35c0.34,0.49,0.58,0.98,0.71,1.47c0.13,0.49,0.2,0.94,0.2,1.33
				c0,1.17-0.31,2.16-0.93,2.98c-0.62,0.82-1.49,1.45-2.6,1.88C431.6,29.89,430.31,30.11,428.85,30.11z"/>
			<path class="st12" d="M442.33,35.37c-1.2,0-2.29-0.2-3.28-0.59v-3.16l1.73,0.07c0.76,0.04,1.37,0.01,1.84-0.11
				c0.46-0.12,0.82-0.27,1.06-0.47c0.24-0.19,0.42-0.39,0.52-0.6c0.1-0.21,0.17-0.38,0.22-0.5l0.32-0.97l-6.83-16.83h4.91
				l4.22,11.45l4.27-11.45h4.84l-7.12,17.66c-0.61,1.5-1.26,2.64-1.94,3.43c-0.68,0.79-1.41,1.34-2.2,1.63
				C444.1,35.22,443.25,35.37,442.33,35.37z"/>
			<path class="st12" d="M465.15,30.11c-1.22,0-2.4-0.2-3.54-0.6c-1.13-0.4-2.09-1.04-2.87-1.9s-1.28-1.99-1.5-3.37h4.3
				c0.15,0.62,0.42,1.12,0.81,1.48c0.39,0.36,0.84,0.62,1.33,0.77c0.5,0.15,0.97,0.23,1.43,0.23c0.95,0,1.72-0.15,2.3-0.45
				c0.58-0.3,0.88-0.76,0.88-1.38c0-0.48-0.17-0.85-0.52-1.14s-0.92-0.5-1.71-0.65l-3.09-0.65c-1.55-0.33-2.8-0.89-3.74-1.67
				c-0.94-0.79-1.42-1.9-1.45-3.35c0-1.05,0.28-2,0.84-2.84c0.56-0.84,1.39-1.5,2.49-1.99s2.45-0.73,4.05-0.73
				c2.17,0,3.9,0.48,5.19,1.43s1.96,2.29,1.98,4.03h-4.15c-0.13-0.68-0.46-1.2-1.01-1.57c-0.55-0.37-1.24-0.55-2.07-0.55
				c-0.86,0-1.57,0.15-2.13,0.46s-0.83,0.77-0.83,1.39c0,0.46,0.23,0.83,0.68,1.1s1.16,0.5,2.11,0.69l2.86,0.65
				c0.99,0.24,1.79,0.56,2.41,0.98c0.62,0.41,1.1,0.86,1.44,1.35s0.58,0.98,0.71,1.47c0.13,0.49,0.2,0.94,0.2,1.33
				c0,1.17-0.31,2.16-0.93,2.98c-0.62,0.82-1.49,1.45-2.6,1.88C467.89,29.89,466.61,30.11,465.15,30.11z"/>
			<path class="st12" d="M486.52,15.65h-3.91l0.03,9.36c0,0.43,0.05,0.75,0.16,0.96c0.11,0.21,0.28,0.35,0.51,0.41
				c0.23,0.06,0.53,0.09,0.89,0.09h2.36v3.06c-0.23,0.1-0.58,0.2-1.06,0.29c-0.48,0.09-1.15,0.14-2.01,0.14
				c-1.54,0-2.73-0.2-3.58-0.59c-0.84-0.4-1.43-0.95-1.76-1.67c-0.33-0.71-0.49-1.54-0.49-2.48v-9.56h-2.86v-3.45h3.03l1.24-5.3
				h3.54v5.28h3.91V15.65z"/>
			<path class="st12" d="M493.67,22.12c-0.01,0.9,0.13,1.67,0.42,2.34s0.72,1.17,1.28,1.53c0.56,0.36,1.24,0.54,2.03,0.54
				c0.85,0,1.59-0.18,2.24-0.54c0.64-0.36,1.08-0.96,1.33-1.78h4.47c-0.19,1.25-0.69,2.31-1.49,3.19c-0.8,0.88-1.76,1.56-2.9,2.02
				c-1.13,0.46-2.31,0.7-3.54,0.7c-1.73,0-3.26-0.37-4.58-1.1s-2.35-1.76-3.08-3.1c-0.74-1.34-1.11-2.91-1.11-4.72
				c0-1.75,0.33-3.34,1-4.75s1.64-2.52,2.92-3.35c1.27-0.82,2.81-1.23,4.6-1.23c1.79,0,3.3,0.38,4.51,1.13
				c1.22,0.75,2.14,1.8,2.75,3.14c0.62,1.34,0.93,2.89,0.93,4.65v1.34H493.67z M493.66,19.17h7.17c0-0.7-0.13-1.35-0.39-1.94
				s-0.65-1.05-1.18-1.39c-0.53-0.34-1.19-0.51-1.98-0.51c-0.77,0-1.42,0.18-1.96,0.55c-0.54,0.37-0.95,0.85-1.23,1.44
				C493.8,17.91,493.66,18.52,493.66,19.17z"/>
			<path class="st12" d="M508.92,29.77V12.21h4.86v2.48c0.53-0.77,1.25-1.43,2.15-1.99c0.9-0.55,2.04-0.83,3.41-0.83
				c0.6,0,1.21,0.11,1.84,0.32c0.62,0.22,1.21,0.53,1.76,0.94c0.55,0.41,0.99,0.93,1.33,1.55c0.57-0.8,1.31-1.47,2.24-2.01
				c0.92-0.54,1.95-0.81,3.08-0.81c0.66,0,1.32,0.11,2,0.32c0.67,0.22,1.29,0.57,1.86,1.05c0.57,0.49,1.02,1.14,1.37,1.94
				c0.35,0.81,0.52,1.81,0.52,3v11.58h-4.96V18.8c0-0.7-0.14-1.27-0.42-1.69c-0.28-0.42-0.63-0.73-1.05-0.92
				c-0.42-0.19-0.88-0.28-1.35-0.28c-0.44,0-0.89,0.09-1.34,0.26c-0.45,0.18-0.84,0.46-1.16,0.84s-0.48,0.89-0.48,1.51v11.24h-4.95
				V18.35c0-0.53-0.14-0.98-0.42-1.34s-0.64-0.64-1.06-0.82c-0.42-0.19-0.86-0.28-1.3-0.28c-0.45,0-0.91,0.09-1.36,0.28
				c-0.45,0.19-0.83,0.48-1.14,0.87s-0.46,0.88-0.46,1.47v11.24H508.92z"/>
		</g>
		<line class="st17" x1="159.98" y1="0" x2="159.98" y2="35.97"/>
		<path class="st12" d="M40,10.16v16.08h-2.82h0v-7.25h-7.32v7.25h-2.82V10.16h2.82v6.4h7.32v-6.4h0H40z M24.22,26.24L24.22,26.24
			H21.4V10.16h2.82V26.24z M18.63,26.24L18.63,26.24h-2.97L8.33,14.42H8.26v11.82H5.58l0,0V10.16l0,0h2.97h0l7.35,11.84h0.05V10.16
			h2.68V26.24z M49.93,18.15L39.97,0.18H3.31C1.48,0.18,0,1.66,0,3.49v29.34c0,1.83,1.48,3.31,3.31,3.31h36.63L49.93,18.15z"/>
		<path class="st12" d="M42.44,36.14l9.98-18L42.47,0.18h2.49c1.36,0,3.02,0.98,3.68,2.17l8.74,15.8l-8.77,15.83
			c-0.66,1.19-2.32,2.17-3.68,2.17H42.44z"/>
		<path class="st12" d="M143.29,33.05c0.02,1.22,0.99,1.8,2.29,1.8c1.07,0,2.31-0.45,2.31-1.68c0-1.02-0.84-1.32-1.67-1.51
			c-0.84-0.19-1.68-0.27-1.68-0.83c0-0.45,0.61-0.53,0.94-0.53c0.5,0,0.95,0.15,1.05,0.69h1.19c-0.14-1.15-1.1-1.59-2.16-1.59
			c-0.94,0-2.16,0.35-2.16,1.48c0,1.05,0.82,1.35,1.66,1.53c0.83,0.19,1.66,0.26,1.69,0.86c0.03,0.59-0.72,0.68-1.15,0.68
			c-0.61,0-1.11-0.24-1.17-0.9H143.29z M139.08,31.67c0.03-0.77,0.57-1.37,1.36-1.37c0.77,0,1.26,0.65,1.3,1.37H139.08z
			 M142.88,32.42c0.19-1.55-0.81-3.02-2.44-3.02c-1.54,0-2.5,1.26-2.5,2.73c0,1.59,0.91,2.72,2.53,2.72c1.13,0,2.09-0.63,2.34-1.76
			h-1.08c-0.2,0.57-0.6,0.86-1.26,0.86c-0.95,0-1.39-0.72-1.39-1.53H142.88z M132.9,33.05c0.02,1.22,0.99,1.8,2.29,1.8
			c1.07,0,2.31-0.45,2.31-1.68c0-1.02-0.84-1.32-1.67-1.51c-0.84-0.19-1.68-0.27-1.68-0.83c0-0.45,0.61-0.53,0.94-0.53
			c0.5,0,0.95,0.15,1.05,0.69h1.19c-0.14-1.15-1.1-1.59-2.16-1.59c-0.94,0-2.16,0.35-2.16,1.48c0,1.05,0.82,1.35,1.66,1.53
			c0.83,0.19,1.66,0.26,1.69,0.86c0.03,0.59-0.72,0.68-1.15,0.68c-0.61,0-1.11-0.24-1.17-0.9H132.9z M132.13,30.9
			c0-1.09-1.06-1.5-2.07-1.5c-1.14,0-2.27,0.39-2.35,1.72h1.14c0.05-0.56,0.5-0.82,1.14-0.82c0.46,0,1.07,0.11,1.07,0.7
			c0,0.67-0.73,0.58-1.55,0.73c-0.96,0.11-1.99,0.32-1.99,1.61c0,1.01,0.84,1.51,1.77,1.51c0.61,0,1.34-0.19,1.79-0.63
			c0.09,0.47,0.42,0.63,0.88,0.63c0.19,0,0.55-0.07,0.72-0.13v-0.79c-0.12,0.02-0.21,0.02-0.28,0.02c-0.21,0-0.27-0.11-0.27-0.39
			V30.9z M130.99,32.97c0,0.72-0.78,0.98-1.28,0.98c-0.4,0-1.05-0.15-1.05-0.66c0-0.6,0.44-0.78,0.93-0.86
			c0.5-0.09,1.05-0.08,1.4-0.31V32.97z M123.31,31.67c0.03-0.77,0.57-1.37,1.36-1.37c0.77,0,1.26,0.65,1.3,1.37H123.31z
			 M127.11,32.42c0.19-1.55-0.81-3.02-2.44-3.02c-1.54,0-2.5,1.26-2.5,2.73c0,1.59,0.91,2.72,2.53,2.72c1.13,0,2.09-0.63,2.34-1.76
			h-1.08c-0.2,0.57-0.6,0.86-1.26,0.86c-0.95,0-1.39-0.72-1.39-1.53H127.11z M117.13,33.05c0.02,1.22,0.99,1.8,2.29,1.8
			c1.07,0,2.31-0.45,2.31-1.68c0-1.02-0.84-1.32-1.67-1.51c-0.84-0.19-1.68-0.27-1.68-0.83c0-0.45,0.61-0.53,0.94-0.53
			c0.5,0,0.95,0.15,1.05,0.69h1.19c-0.14-1.15-1.1-1.59-2.16-1.59c-0.94,0-2.16,0.35-2.16,1.48c0,1.05,0.82,1.35,1.66,1.53
			c0.83,0.19,1.66,0.26,1.69,0.86c0.03,0.59-0.72,0.68-1.15,0.68c-0.61,0-1.11-0.24-1.17-0.9H117.13z M115.21,28.65h1.14v-1.08
			h-1.14V28.65z M115.21,34.71h1.14v-5.17h-1.14V34.71z M108.3,34.71h2.96c2.2,0,3.15-1.6,3.15-3.57c0-1.97-0.95-3.57-3.15-3.57
			h-2.96V34.71z M109.55,28.59h1.23c1.96,0,2.38,1.12,2.38,2.55c0,1.43-0.42,2.55-2.38,2.55h-1.23V28.59z M100.25,33.05
			c0.02,1.22,0.99,1.8,2.29,1.8c1.07,0,2.31-0.45,2.31-1.68c0-1.02-0.84-1.32-1.67-1.51c-0.84-0.19-1.68-0.27-1.68-0.83
			c0-0.45,0.61-0.53,0.94-0.53c0.5,0,0.95,0.15,1.05,0.69h1.19c-0.14-1.15-1.1-1.59-2.16-1.59c-0.94,0-2.16,0.35-2.16,1.48
			c0,1.05,0.82,1.35,1.66,1.53c0.83,0.19,1.66,0.26,1.69,0.86c0.03,0.59-0.72,0.68-1.15,0.68c-0.61,0-1.11-0.24-1.17-0.9H100.25z
			 M99.51,29.54h-1.14v3c0,0.8-0.32,1.41-1.27,1.41c-0.62,0-0.99-0.33-0.99-1.24v-3.17h-1.14v3.28c0,1.35,0.58,2.03,1.93,2.03
			c0.57,0,1.19-0.34,1.47-0.86h0.02v0.72h1.12V29.54z M91.59,34.85c1.66,0,2.61-1.14,2.61-2.73c0-1.58-0.95-2.72-2.61-2.72
			c-1.66,0-2.61,1.14-2.61,2.72C88.98,33.71,89.92,34.85,91.59,34.85 M91.59,33.95c-1.02,0-1.47-0.93-1.47-1.83
			c0-0.89,0.45-1.82,1.47-1.82c1.02,0,1.47,0.93,1.47,1.82C93.06,33.02,92.6,33.95,91.59,33.95 M87.02,28.65h1.14v-1.08h-1.14V28.65
			z M87.02,34.71h1.14v-5.17h-1.14V34.71z M83.31,30.39h0.86v3.05c0.02,0.86,0.24,1.32,1.43,1.32c0.25,0,0.49-0.04,0.74-0.06v-0.88
			c-0.16,0.04-0.32,0.04-0.48,0.04c-0.51,0-0.55-0.24-0.55-0.71v-2.76h1.03v-0.85h-1.03V28h-1.14v1.55h-0.86V30.39z M83.08,31.27
			c-0.11-1.27-1.13-1.87-2.33-1.87c-1.7,0-2.55,1.22-2.55,2.78c0,1.52,0.89,2.67,2.51,2.67c1.33,0,2.16-0.74,2.37-2.08h-1.14
			c-0.11,0.74-0.57,1.18-1.23,1.18c-0.99,0-1.37-0.91-1.37-1.77c0-1.57,0.83-1.88,1.42-1.88c0.63,0,1.09,0.34,1.18,0.97H83.08z
			 M73.96,31.67c0.03-0.77,0.57-1.37,1.36-1.37c0.77,0,1.26,0.65,1.3,1.37H73.96z M77.76,32.42c0.19-1.55-0.81-3.02-2.44-3.02
			c-1.54,0-2.5,1.26-2.5,2.73c0,1.59,0.91,2.72,2.53,2.72c1.13,0,2.09-0.63,2.34-1.76h-1.08c-0.2,0.57-0.6,0.86-1.26,0.86
			c-0.95,0-1.39-0.72-1.39-1.53H77.76z M69.59,30.39h0.85v4.32h1.14v-4.32h0.97v-0.85h-0.97v-0.53c0-0.43,0.25-0.54,0.56-0.54
			c0.23,0,0.38,0.02,0.53,0.06v-0.89c-0.18-0.05-0.44-0.07-0.8-0.07c-0.74,0-1.43,0.22-1.43,1.54v0.43h-0.85V30.39z M64.54,34.71
			h1.14v-3.05c0-0.76,0.49-1.36,1.25-1.36c0.67,0,0.99,0.35,1.01,1.16v3.25h1.14v-3.55c0-1.16-0.71-1.76-1.83-1.76
			c-0.68,0-1.27,0.35-1.61,0.92l-0.02-0.02v-0.76h-1.08V34.71z M62.1,34.71h1.25v-7.13H62.1V34.71z"/>
		<path class="st12" d="M110.79,14.92h-1.14v2.64h-0.02c-0.35-0.57-1.07-0.81-1.72-0.81c-1.13,0-2.24,0.82-2.24,2.69
			c0,1.55,0.79,2.76,2.42,2.76c0.65,0,1.3-0.25,1.6-0.84h0.02v0.7h1.08V14.92z M106.81,19.52c0-0.93,0.38-1.88,1.45-1.88
			c0.88,0,1.43,0.68,1.43,1.82c0,0.9-0.43,1.83-1.45,1.83C107.25,21.29,106.81,20.41,106.81,19.52 M100.36,22.05h1.14V19
			c0-0.76,0.49-1.36,1.25-1.36c0.67,0,0.99,0.35,1.01,1.16v3.25h1.14V18.5c0-1.16-0.71-1.76-1.83-1.76c-0.68,0-1.27,0.35-1.61,0.92
			l-0.02-0.02v-0.76h-1.08V22.05z M99.31,18.25c0-1.09-1.06-1.5-2.07-1.5c-1.14,0-2.27,0.39-2.35,1.72h1.14
			c0.05-0.56,0.5-0.82,1.14-0.82c0.46,0,1.07,0.11,1.07,0.7c0,0.67-0.73,0.58-1.55,0.73c-0.96,0.11-1.99,0.32-1.99,1.61
			c0,1.01,0.84,1.51,1.77,1.51c0.61,0,1.34-0.19,1.79-0.63c0.09,0.47,0.42,0.63,0.88,0.63c0.19,0,0.55-0.07,0.72-0.13v-0.79
			c-0.12,0.02-0.21,0.02-0.28,0.02c-0.21,0-0.27-0.11-0.27-0.39V18.25z M98.17,20.31c0,0.72-0.78,0.98-1.28,0.98
			c-0.4,0-1.05-0.15-1.05-0.66c0-0.6,0.44-0.78,0.93-0.86c0.5-0.09,1.05-0.08,1.4-0.31V20.31z M88.76,22.03l-0.13,0.4
			c-0.14,0.44-0.27,0.72-0.8,0.72c-0.18,0-0.36-0.04-0.54-0.07v0.96c0.26,0.04,0.52,0.06,0.79,0.06c1.19,0,1.46-0.84,1.83-1.77
			l2.01-5.44h-1.19l-1.31,3.86H89.4l-1.35-3.86h-1.25L88.76,22.03z M86.39,16.89h-1.14v0.71h-0.02c-0.29-0.58-0.88-0.85-1.53-0.85
			c-1.47,0-2.34,1.2-2.34,2.59c0,1.48,0.68,2.72,2.32,2.72c0.64,0,1.23-0.34,1.55-0.91h0.02v0.79c0,0.85-0.41,1.32-1.33,1.32
			c-0.58,0-1.1-0.11-1.24-0.76h-1.14c0.1,1.21,1.27,1.61,2.31,1.61c1.63,0,2.54-0.77,2.54-2.32V16.89z M83.86,21.15
			c-0.95,0-1.36-0.86-1.36-1.71c0-0.86,0.35-1.8,1.36-1.8c0.99,0,1.39,0.82,1.39,1.71C85.25,20.23,84.87,21.15,83.86,21.15
			 M78.27,22.05h1.14v-2.46c0-1.14,0.62-1.77,1.4-1.77c0.16,0,0.33,0.03,0.49,0.05v-1.1c-0.1-0.01-0.17-0.03-0.43-0.03
			c-0.7,0-1.38,0.59-1.51,1.14h-0.02v-1h-1.07V22.05z M73.78,19.01c0.03-0.77,0.57-1.37,1.36-1.37c0.77,0,1.26,0.65,1.3,1.37H73.78z
			 M77.58,19.76c0.19-1.55-0.81-3.02-2.44-3.02c-1.54,0-2.5,1.26-2.5,2.73c0,1.59,0.91,2.72,2.53,2.72c1.13,0,2.09-0.63,2.34-1.76
			h-1.08c-0.2,0.57-0.6,0.86-1.26,0.86c-0.95,0-1.39-0.72-1.39-1.53H77.58z M70.69,22.05h1.14v-7.13h-1.14V22.05z M68.46,22.05h1.14
			v-7.13h-1.14V22.05z M61.27,22.05h1.29l0.67-1.89h2.85l0.67,1.89h1.34l-2.75-7.13h-1.33L61.27,22.05z M64.65,16.15h0.03l1.07,3.07
			h-2.18L64.65,16.15z"/>
		<path class="st12" d="M144.9,5.08h0.85V9.4h1.14V5.08h0.97V4.23h-0.97V3.7c0-0.43,0.25-0.54,0.56-0.54c0.23,0,0.38,0.02,0.53,0.06
			V2.33c-0.18-0.05-0.44-0.07-0.8-0.07c-0.74,0-1.43,0.22-1.43,1.54v0.43h-0.85V5.08z M142.03,9.54c1.66,0,2.61-1.14,2.61-2.73
			c0-1.58-0.95-2.72-2.61-2.72c-1.66,0-2.61,1.14-2.61,2.72C139.42,8.4,140.37,9.54,142.03,9.54 M142.03,8.64
			c-1.02,0-1.47-0.93-1.47-1.83c0-0.89,0.45-1.82,1.47-1.82c1.02,0,1.47,0.93,1.47,1.82C143.5,7.71,143.05,8.64,142.03,8.64
			 M132.57,6.36c0.03-0.77,0.57-1.37,1.36-1.37c0.77,0,1.26,0.65,1.3,1.37H132.57z M136.37,7.11c0.19-1.55-0.81-3.02-2.44-3.02
			c-1.54,0-2.5,1.26-2.5,2.73c0,1.59,0.91,2.72,2.53,2.72c1.13,0,2.09-0.63,2.34-1.76h-1.08c-0.2,0.57-0.6,0.86-1.26,0.86
			c-0.95,0-1.39-0.72-1.39-1.53H136.37z M128.01,5.08h0.86v3.05c0.02,0.86,0.24,1.32,1.43,1.32c0.25,0,0.49-0.04,0.74-0.06V8.51
			c-0.16,0.04-0.32,0.04-0.48,0.04c-0.51,0-0.55-0.24-0.55-0.71V5.08h1.03V4.23h-1.03V2.68h-1.14v1.55h-0.86V5.08z M127.51,4.23
			h-1.14v3c0,0.8-0.32,1.41-1.27,1.41c-0.62,0-0.99-0.33-0.99-1.24V4.23h-1.14v3.28c0,1.35,0.58,2.03,1.93,2.03
			c0.57,0,1.19-0.34,1.47-0.86h0.02V9.4h1.12V4.23z M119.3,5.08h0.86v3.05c0.02,0.86,0.24,1.32,1.43,1.32
			c0.25,0,0.49-0.04,0.74-0.06V8.51c-0.16,0.04-0.32,0.04-0.48,0.04c-0.51,0-0.55-0.24-0.55-0.71V5.08h1.03V4.23h-1.03V2.68h-1.14
			v1.55h-0.86V5.08z M117.62,3.34h1.14V2.26h-1.14V3.34z M117.62,9.4h1.14V4.23h-1.14V9.4z M113.92,5.08h0.86v3.05
			c0.02,0.86,0.24,1.32,1.43,1.32c0.25,0,0.49-0.04,0.74-0.06V8.51c-0.16,0.04-0.32,0.04-0.48,0.04c-0.51,0-0.55-0.24-0.55-0.71
			V5.08h1.03V4.23h-1.03V2.68h-1.14v1.55h-0.86V5.08z M109.15,7.74c0.02,1.22,0.99,1.8,2.29,1.8c1.07,0,2.31-0.45,2.31-1.68
			c0-1.02-0.84-1.32-1.67-1.51c-0.84-0.19-1.68-0.27-1.68-0.83c0-0.45,0.61-0.53,0.94-0.53c0.5,0,0.95,0.15,1.05,0.69h1.19
			c-0.14-1.15-1.1-1.59-2.16-1.59c-0.94,0-2.16,0.35-2.16,1.48c0,1.05,0.82,1.35,1.66,1.53c0.83,0.19,1.66,0.26,1.69,0.86
			c0.03,0.59-0.72,0.68-1.15,0.68c-0.61,0-1.11-0.24-1.17-0.9H109.15z M103.87,9.4h1.14V6.35c0-0.76,0.49-1.36,1.25-1.36
			c0.67,0,0.99,0.35,1.01,1.16V9.4h1.14V5.85c0-1.16-0.71-1.76-1.83-1.76c-0.68,0-1.27,0.35-1.61,0.92l-0.02-0.02V4.23h-1.08V9.4z
			 M101.43,9.4h1.25V2.26h-1.25V9.4z M96.47,9.4h1.14V2.26h-1.14V9.4z M95.38,5.59c0-1.09-1.06-1.5-2.07-1.5
			c-1.14,0-2.27,0.39-2.35,1.72h1.14c0.05-0.56,0.5-0.82,1.14-0.82c0.46,0,1.07,0.11,1.07,0.7c0,0.67-0.73,0.58-1.55,0.73
			c-0.96,0.11-1.99,0.32-1.99,1.61c0,1.01,0.84,1.51,1.77,1.51c0.61,0,1.34-0.19,1.79-0.63c0.09,0.47,0.42,0.63,0.88,0.63
			c0.19,0,0.55-0.07,0.72-0.13V8.62c-0.12,0.02-0.21,0.02-0.28,0.02c-0.21,0-0.27-0.11-0.27-0.39V5.59z M94.25,7.66
			c0,0.72-0.78,0.98-1.28,0.98c-0.4,0-1.05-0.15-1.05-0.66c0-0.6,0.44-0.78,0.93-0.86c0.5-0.09,1.05-0.08,1.4-0.31V7.66z M85.49,9.4
			h1.14V6.35c0-0.76,0.49-1.36,1.25-1.36c0.67,0,0.99,0.35,1.01,1.16V9.4h1.14V5.85c0-1.16-0.71-1.76-1.83-1.76
			c-0.68,0-1.27,0.35-1.61,0.92l-0.02-0.02V4.23h-1.08V9.4z M82.11,9.54c1.66,0,2.61-1.14,2.61-2.73c0-1.58-0.95-2.72-2.61-2.72
			c-1.66,0-2.61,1.14-2.61,2.72C79.5,8.4,80.45,9.54,82.11,9.54 M82.11,8.64c-1.02,0-1.47-0.93-1.47-1.83
			c0-0.89,0.45-1.82,1.47-1.82c1.02,0,1.47,0.93,1.47,1.82C83.58,7.71,83.13,8.64,82.11,8.64 M77.54,3.34h1.14V2.26h-1.14V3.34z
			 M77.54,9.4h1.14V4.23h-1.14V9.4z M73.84,5.08h0.86v3.05c0.02,0.86,0.24,1.32,1.43,1.32c0.25,0,0.49-0.04,0.74-0.06V8.51
			c-0.16,0.04-0.32,0.04-0.48,0.04c-0.51,0-0.55-0.24-0.55-0.71V5.08h1.03V4.23h-1.03V2.68H74.7v1.55h-0.86V5.08z M73.31,5.59
			c0-1.09-1.06-1.5-2.07-1.5c-1.14,0-2.27,0.39-2.35,1.72h1.14c0.05-0.56,0.5-0.82,1.14-0.82c0.46,0,1.07,0.11,1.07,0.7
			c0,0.67-0.73,0.58-1.55,0.73c-0.96,0.11-1.99,0.32-1.99,1.61c0,1.01,0.84,1.51,1.77,1.51c0.61,0,1.34-0.19,1.79-0.63
			c0.09,0.47,0.42,0.63,0.88,0.63c0.19,0,0.55-0.07,0.72-0.13V8.62c-0.12,0.02-0.21,0.02-0.28,0.02c-0.21,0-0.27-0.11-0.27-0.39
			V5.59z M72.17,7.66c0,0.72-0.78,0.98-1.28,0.98c-0.4,0-1.05-0.15-1.05-0.66c0-0.6,0.44-0.78,0.93-0.86
			c0.5-0.09,1.05-0.08,1.4-0.31V7.66z M62.05,9.4h1.19V4.15h0.03l3.25,5.25h1.32V2.26h-1.19v5.26h-0.02l-3.26-5.26h-1.32V9.4z"/>
	</g>
	<g id="Layer_11" class="st4">
	</g>
	<g id="mobile_x5F_preferred_1_">
	</g>
	<g id="mobile_x5F_vertical_1_">
	</g>
</g>
</svg>
